<svg width="120" height="55" viewBox="0 0 120 55" fill="none" xmlns="http://www.w3.org/2000/svg">
<path d="M28 14.5V34.5L31.0771 27.1152L32.9229 27.8848L27.9229 39.8848L26 39.5V20.9854L21.9531 33.8008L20.0518 33.8164L18.5068 29.1836C18.3877 28.8265 18.0808 28.5711 17.7178 28.5127L17.5586 28.5H11V26.5H17.5586L17.7988 26.5098C18.9903 26.605 20.0215 27.4033 20.4043 28.5518L20.9736 30.2617L26.0469 14.1992L28 14.5Z" fill="#CC0000"/>
<path d="M26 8C26 4.96243 23.5376 2.5 20.5 2.5C17.4624 2.5 15 4.96243 15 8C15 8.217 15.0128 8.43072 15.0371 8.64062C18.0555 9.19218 20.5144 11.3343 21.5156 14.166L20.5732 14.5L19.6299 14.833C18.8259 12.5587 16.7919 10.8665 14.3311 10.5527L14.0918 10.5264C13.8972 10.5088 13.6997 10.5 13.5 10.5C9.91015 10.5 7 13.4101 7 17C7 17.0831 7.00376 17.1658 7.00684 17.248C8.24552 16.7653 9.59256 16.5 11 16.5C12.7786 16.5 14.4611 16.9232 15.9502 17.6748L15.0498 19.46C13.8338 18.8461 12.4585 18.5 11 18.5C9.53052 18.5 8.14596 18.8519 6.92285 19.4746L6.68066 19.6025C3.88931 21.1329 2 24.0965 2 27.5C2 30.9035 3.88931 33.8671 6.68066 35.3975L6.92285 35.5254C8.14596 36.1481 9.53052 36.5 11 36.5V38.5C9.59243 38.5 8.24561 38.2338 7.00684 37.751C7.00373 37.8336 7 37.9166 7 38C7 40.8321 8.81189 43.2437 11.3428 44.1338L11.5977 44.2178C12.1983 44.4013 12.8368 44.5 13.5 44.5C15.4951 44.5 17.2797 43.6025 18.4736 42.1855L20.0029 43.4736C18.4453 45.3224 16.1096 46.5 13.5 46.5C13.0084 46.5 12.5262 46.4574 12.0566 46.377C12.4882 49.8289 15.4311 52.5 19 52.5C22.866 52.5 26 49.366 26 45.5V42.5H28V45.5C28 50.4706 23.9706 54.5 19 54.5C14.1127 54.5 10.1378 50.6044 10.0059 45.749C7.05559 44.4166 5 41.4501 5 38C5 37.5858 5.03236 37.1785 5.08984 36.7793C2.0311 34.8272 0 31.4013 0 27.5C0 23.5985 2.03085 20.1718 5.08984 18.2197C5.03245 17.8209 5 17.4139 5 17C5 12.4672 8.54813 8.76329 13.0186 8.51367C13.007 8.34381 13 8.17257 13 8C13 3.85786 16.3579 0.5 20.5 0.5C24.6421 0.5 28 3.85786 28 8V11.5H26V8Z" fill="#18191B"/>
<path d="M45.578 16.162C46.1353 16.162 46.6193 16.0923 47.03 15.953C47.448 15.8137 47.789 15.623 48.053 15.381C48.3243 15.1317 48.526 14.8383 48.658 14.501C48.79 14.1637 48.856 13.7933 48.856 13.39C48.856 12.5833 48.5883 11.9637 48.053 11.531C47.525 11.0983 46.7147 10.882 45.622 10.882H43.73V16.162H45.578ZM53.19 24.5H50.517C50.011 24.5 49.6443 24.302 49.417 23.906L46.073 18.813C45.9483 18.6223 45.809 18.4867 45.655 18.406C45.5083 18.3253 45.2883 18.285 44.995 18.285H43.73V24.5H40.771V8.594H45.622C46.7 8.594 47.624 8.70767 48.394 8.935C49.1713 9.155 49.8057 9.46667 50.297 9.87C50.7957 10.2733 51.1623 10.7573 51.397 11.322C51.6317 11.8793 51.749 12.4953 51.749 13.17C51.749 13.7053 51.6683 14.2113 51.507 14.688C51.353 15.1647 51.1257 15.5973 50.825 15.986C50.5317 16.3747 50.165 16.7157 49.725 17.009C49.2923 17.3023 48.7973 17.5333 48.24 17.702C48.4307 17.812 48.6067 17.944 48.768 18.098C48.9293 18.2447 49.076 18.4207 49.208 18.626L53.19 24.5Z" fill="#61656B"/>
<path d="M68.3167 8.594V24.5H65.3467V17.548H57.8777V24.5H54.9077V8.594H57.8777V15.436H65.3467V8.594H68.3167Z" fill="#61656B"/>
<path d="M78.2609 22.113C78.8329 22.113 79.3426 22.0177 79.7899 21.827C80.2446 21.6363 80.6259 21.3687 80.9339 21.024C81.2419 20.6793 81.4766 20.2613 81.6379 19.77C81.8066 19.2787 81.8909 18.7287 81.8909 18.12V8.594H84.8499V18.12C84.8499 19.066 84.6959 19.9423 84.3879 20.749C84.0872 21.5483 83.6509 22.2413 83.0789 22.828C82.5142 23.4073 81.8249 23.862 81.0109 24.192C80.1969 24.5147 79.2802 24.676 78.2609 24.676C77.2342 24.676 76.3139 24.5147 75.4999 24.192C74.6859 23.862 73.9929 23.4073 73.4209 22.828C72.8562 22.2413 72.4199 21.5483 72.1119 20.749C71.8112 19.9423 71.6609 19.066 71.6609 18.12V8.594H74.6199V18.109C74.6199 18.7177 74.7006 19.2677 74.8619 19.759C75.0306 20.2503 75.2689 20.672 75.5769 21.024C75.8922 21.3687 76.2736 21.6363 76.7209 21.827C77.1756 22.0177 77.6889 22.113 78.2609 22.113Z" fill="#61656B"/>
<path d="M51.881 33.025H47.085V46.5H44.126V33.025H39.33V30.594H51.881V33.025Z" fill="#18191B"/>
<path d="M60.8195 40.494L58.8835 35.203C58.7882 34.9683 58.6892 34.6897 58.5865 34.367C58.4839 34.0443 58.3812 33.696 58.2785 33.322C58.1832 33.696 58.0842 34.048 57.9815 34.378C57.8789 34.7007 57.7799 34.983 57.6845 35.225L55.7595 40.494H60.8195ZM66.0445 46.5H63.7565C63.4999 46.5 63.2909 46.4377 63.1295 46.313C62.9682 46.181 62.8472 46.0197 62.7665 45.829L61.5785 42.584H54.9895L53.8015 45.829C53.7429 45.9977 53.6292 46.1517 53.4605 46.291C53.2919 46.4303 53.0829 46.5 52.8335 46.5H50.5235L56.7825 30.594H59.7965L66.0445 46.5Z" fill="#18191B"/>
<path d="M77.0079 44.058V46.5H67.6909V30.594H70.6499V44.058H77.0079Z" fill="#18191B"/>
<path d="M82.0906 32.948V37.359H87.6566V39.636H82.0906V44.135H89.1526V46.5H79.1206V30.594H89.1526V32.948H82.0906Z" fill="#18191B"/>
<path d="M105.184 30.594V46.5H103.666C103.431 46.5 103.233 46.4633 103.072 46.39C102.918 46.3093 102.768 46.1773 102.621 45.994L94.3159 35.39C94.3599 35.874 94.3819 36.3213 94.3819 36.732V46.5H91.7749V30.594H93.3259C93.4506 30.594 93.5569 30.6013 93.6449 30.616C93.7402 30.6233 93.8209 30.6453 93.8869 30.682C93.9602 30.7113 94.0299 30.759 94.0959 30.825C94.1619 30.8837 94.2352 30.9643 94.3159 31.067L102.654 41.715C102.632 41.4583 102.614 41.2053 102.599 40.956C102.584 40.7067 102.577 40.4757 102.577 40.263V30.594H105.184Z" fill="#18191B"/>
<path d="M119.836 33.025H115.04V46.5H112.081V33.025H107.285V30.594H119.836V33.025Z" fill="#18191B"/>
</svg>
